<?xml version="1.0" standalone="no"?>
<!DOCTYPE svg PUBLIC "-//W3C//DTD SVG 20010904//EN"
 "http://www.w3.org/TR/2001/REC-SVG-20010904/DTD/svg10.dtd">
<svg version="1.0" xmlns="http://www.w3.org/2000/svg"
 width="192.000000pt" height="192.000000pt" viewBox="0 0 192.000000 192.000000"
 preserveAspectRatio="xMidYMid meet">
<metadata>
Created by potrace 1.14, written by Peter Selinger 2001-2017
</metadata>
<g transform="translate(0.000000,192.000000) scale(0.100000,-0.100000)"
fill="#000000" stroke="none">
<path d="M728 1894 c-169 -45 -292 -117 -413 -238 -100 -100 -115 -121 -166
-220 -108 -209 -132 -398 -84 -649 23 -120 118 -294 225 -410 l52 -57 36 28
c21 15 39 30 40 35 2 4 10 7 17 7 31 0 24 24 -19 68 -101 105 -145 174 -187
296 -55 160 -58 330 -7 486 88 272 313 471 593 525 89 18 251 13 335 -9 282
-74 504 -308 565 -595 14 -67 15 -256 1 -316 -32 -136 -105 -271 -200 -371
l-63 -65 46 -32 c25 -17 52 -37 59 -43 10 -10 21 -5 53 29 241 246 326 610
217 932 -46 138 -120 256 -222 358 -66 67 -187 154 -251 181 -161 70 -230 84
-400 84 -116 0 -155 -4 -227 -24z"/>
<path d="M813 1629 c-125 -33 -215 -92 -310 -203 -27 -31 -82 -143 -97 -197
-33 -114 -23 -264 26 -379 22 -51 79 -140 91 -140 13 0 112 82 110 91 -1 4
-16 29 -33 56 -179 281 46 658 381 639 58 -4 124 -21 147 -39 6 -5 12 -6 12
-3 0 11 82 -49 123 -90 21 -22 55 -72 74 -113 32 -66 36 -85 38 -160 3 -111
-20 -187 -81 -268 l-24 -32 22 -12 c13 -7 40 -25 61 -41 45 -36 52 -32 98 50
68 117 97 296 68 410 -38 144 -130 282 -235 349 -46 30 -132 71 -164 79 -19 4
-42 10 -50 12 -46 14 -190 9 -257 -9z"/>
<path d="M920 1343 c-39 -5 -103 -43 -129 -75 -116 -144 -16 -353 169 -352
141 1 238 128 206 271 -22 102 -134 172 -246 156z"/>
<path d="M827 836 c-23 -12 -52 -36 -64 -54 -20 -30 -22 -43 -18 -115 5 -84
14 -204 20 -267 2 -19 6 -73 10 -120 13 -176 21 -200 80 -246 27 -20 49 -27
88 -29 66 -3 96 8 134 48 38 40 51 80 58 182 3 44 7 100 10 125 2 25 7 72 10
105 2 33 8 94 12 135 10 111 6 150 -19 186 -37 54 -68 66 -180 69 -84 2 -106
-1 -141 -19z"/>
</g>
</svg>
